<svg width="203" height="183" viewBox="0 0 203 183" fill="none" xmlns="http://www.w3.org/2000/svg">
<mask id="path-1-inside-1_60_581" fill="white">
<path d="M131.176 148V141.7H134.626C136.826 141.7 138.826 141.5 140.627 141.1C142.526 140.6 144.027 139.65 145.127 138.25C146.327 136.75 146.927 134.55 146.927 131.65V48.4H132.526C129.626 48.4 127.326 49 125.626 50.2C123.926 51.3 122.676 52.8 121.876 54.7C121.076 56.5 120.526 58.5 120.226 60.7L119.476 67.15H111.676L112.426 40.9H196.876L197.627 67.15H189.826L189.077 60.7C188.877 58.5 188.327 56.5 187.427 54.7C186.627 52.8 185.377 51.3 183.676 50.2C181.976 49 179.626 48.4 176.626 48.4H162.076V130.9C162.076 134 162.626 136.35 163.727 137.95C164.827 139.45 166.327 140.45 168.227 140.95C170.127 141.45 172.177 141.7 174.377 141.7H177.827V148H131.176Z"/>
</mask>
<g filter="url(#filter0_i_60_581)">
<path d="M131.176 148V141.7H134.626C136.826 141.7 138.826 141.5 140.627 141.1C142.526 140.6 144.027 139.65 145.127 138.25C146.327 136.75 146.927 134.55 146.927 131.65V48.4H132.526C129.626 48.4 127.326 49 125.626 50.2C123.926 51.3 122.676 52.8 121.876 54.7C121.076 56.5 120.526 58.5 120.226 60.7L119.476 67.15H111.676L112.426 40.9H196.876L197.627 67.15H189.826L189.077 60.7C188.877 58.5 188.327 56.5 187.427 54.7C186.627 52.8 185.377 51.3 183.676 50.2C181.976 49 179.626 48.4 176.626 48.4H162.076V130.9C162.076 134 162.626 136.35 163.727 137.95C164.827 139.45 166.327 140.45 168.227 140.95C170.127 141.45 172.177 141.7 174.377 141.7H177.827V148H131.176Z" fill="black"/>
</g>
<path d="M131.176 148H130.176V149H131.176V148ZM131.176 141.7V140.7H130.176V141.7H131.176ZM140.627 141.1L140.843 142.076L140.862 142.072L140.881 142.067L140.627 141.1ZM145.127 138.25L144.346 137.625L144.34 137.632L145.127 138.25ZM146.927 48.4H147.927V47.4H146.927V48.4ZM125.626 50.2L126.17 51.0396L126.187 51.0286L126.203 51.017L125.626 50.2ZM121.876 54.7L122.79 55.1061L122.794 55.0971L122.798 55.0881L121.876 54.7ZM120.226 60.7L119.236 60.5649L119.234 60.5747L119.233 60.5845L120.226 60.7ZM119.476 67.15V68.15H120.367L120.47 67.2655L119.476 67.15ZM111.676 67.15L110.677 67.1214L110.648 68.15H111.676V67.15ZM112.426 40.9V39.9H111.455L111.427 40.8714L112.426 40.9ZM196.876 40.9L197.876 40.8714L197.848 39.9H196.876V40.9ZM197.627 67.15V68.15H198.655L198.626 67.1214L197.627 67.15ZM189.826 67.15L188.833 67.2655L188.936 68.15H189.826V67.15ZM189.077 60.7L188.081 60.7905L188.082 60.803L188.083 60.8155L189.077 60.7ZM187.427 54.7L186.505 55.0881L186.518 55.1181L186.532 55.1472L187.427 54.7ZM183.676 50.2L183.1 51.017L183.116 51.0286L183.133 51.0396L183.676 50.2ZM162.076 48.4V47.4H161.076V48.4H162.076ZM163.727 137.95L162.902 138.517L162.911 138.529L162.92 138.541L163.727 137.95ZM177.827 141.7H178.827V140.7H177.827V141.7ZM177.827 148V149H178.827V148H177.827ZM132.176 148V141.7H130.176V148H132.176ZM131.176 142.7H134.626V140.7H131.176V142.7ZM134.626 142.7C136.886 142.7 138.96 142.495 140.843 142.076L140.41 140.124C138.693 140.505 136.767 140.7 134.626 140.7V142.7ZM140.881 142.067C142.969 141.518 144.664 140.457 145.913 138.868L144.34 137.632C143.389 138.843 142.084 139.682 140.372 140.133L140.881 142.067ZM145.907 138.875C147.306 137.127 147.927 134.666 147.927 131.65H145.927C145.927 134.434 145.347 136.373 144.346 137.625L145.907 138.875ZM147.927 131.65V48.4H145.927V131.65H147.927ZM146.927 47.4H132.526V49.4H146.927V47.4ZM132.526 47.4C129.499 47.4 126.973 48.0253 125.05 49.383L126.203 51.017C127.68 49.9747 129.754 49.4 132.526 49.4V47.4ZM125.083 49.3604C123.211 50.5716 121.831 52.2304 120.955 54.3119L122.798 55.0881C123.522 53.3696 124.642 52.0284 126.17 51.0396L125.083 49.3604ZM120.963 54.2939C120.12 56.1903 119.547 58.2831 119.236 60.5649L121.217 60.8351C121.506 58.7169 122.033 56.8097 122.79 55.1061L120.963 54.2939ZM119.233 60.5845L118.483 67.0345L120.47 67.2655L121.22 60.8155L119.233 60.5845ZM119.476 66.15H111.676V68.15H119.476V66.15ZM112.676 67.1786L113.426 40.9286L111.427 40.8714L110.677 67.1214L112.676 67.1786ZM112.426 41.9H196.876V39.9H112.426V41.9ZM195.877 40.9286L196.627 67.1786L198.626 67.1214L197.876 40.8714L195.877 40.9286ZM197.627 66.15H189.826V68.15H197.627V66.15ZM190.82 67.0345L190.07 60.5845L188.083 60.8155L188.833 67.2655L190.82 67.0345ZM190.072 60.6095C189.862 58.2974 189.282 56.1747 188.321 54.2528L186.532 55.1472C187.371 56.8253 187.891 58.7026 188.081 60.7905L190.072 60.6095ZM188.348 54.3119C187.472 52.2304 186.092 50.5716 184.22 49.3604L183.133 51.0396C184.661 52.0284 185.781 53.3696 186.505 55.0881L188.348 54.3119ZM184.253 49.383C182.325 48.0219 179.746 47.4 176.626 47.4V49.4C179.507 49.4 181.628 49.9781 183.1 51.017L184.253 49.383ZM176.626 47.4H162.076V49.4H176.626V47.4ZM161.076 48.4V130.9H163.076V48.4H161.076ZM161.076 130.9C161.076 134.092 161.638 136.677 162.902 138.517L164.551 137.383C163.615 136.023 163.076 133.908 163.076 130.9H161.076ZM162.92 138.541C164.164 140.237 165.864 141.362 167.972 141.917L168.481 139.983C166.789 139.538 165.489 138.663 164.533 137.359L162.92 138.541ZM167.972 141.917C169.964 142.441 172.101 142.7 174.377 142.7V140.7C172.252 140.7 170.289 140.459 168.481 139.983L167.972 141.917ZM174.377 142.7H177.827V140.7H174.377V142.7ZM176.827 141.7V148H178.827V141.7H176.827ZM177.827 147H131.176V149H177.827V147Z" fill="black" mask="url(#path-1-inside-1_60_581)"/>
<g opacity="0.4">
<mask id="path-3-inside-2_60_581" fill="white">
<path d="M72.7911 148L37.5411 54.1H36.9411C37.1411 56.1 37.2911 58.65 37.3911 61.75C37.5911 64.85 37.7411 68.25 37.8411 71.95C37.9411 75.55 37.9911 79.25 37.9911 83.05V148H25.5411V40.9H45.4911L78.4911 128.65H79.0911L112.691 40.9H132.491V148H119.141V82.15C119.141 78.65 119.191 75.2 119.291 71.8C119.391 68.3 119.541 65.05 119.741 62.05C119.941 58.95 120.091 56.35 120.191 54.25H119.591L83.8911 148H72.7911Z"/>
</mask>
<path d="M72.7911 148L37.5411 54.1H36.9411C37.1411 56.1 37.2911 58.65 37.3911 61.75C37.5911 64.85 37.7411 68.25 37.8411 71.95C37.9411 75.55 37.9911 79.25 37.9911 83.05V148H25.5411V40.9H45.4911L78.4911 128.65H79.0911L112.691 40.9H132.491V148H119.141V82.15C119.141 78.65 119.191 75.2 119.291 71.8C119.391 68.3 119.541 65.05 119.741 62.05C119.941 58.95 120.091 56.35 120.191 54.25H119.591L83.8911 148H72.7911Z" fill="white"/>
<path d="M72.7911 148L35.3428 162.058L45.0814 188H72.7911V148ZM37.5411 54.1L74.9893 40.0419L65.2507 14.1H37.5411V54.1ZM36.9411 54.1V14.1H-7.25845L-2.86044 58.0801L36.9411 54.1ZM37.3911 61.75L-2.58815 63.0396L-2.5674 63.683L-2.52596 64.3253L37.3911 61.75ZM37.8411 71.95L-2.14435 73.0307L-2.14394 73.0457L-2.14353 73.0607L37.8411 71.95ZM37.9911 148V188H77.9911V148H37.9911ZM25.5411 148H-14.4589V188H25.5411V148ZM25.5411 40.9V0.899993H-14.4589V40.9H25.5411ZM45.4911 40.9L82.9311 26.82L73.1834 0.899993H45.4911V40.9ZM78.4911 128.65L41.0511 142.73L50.7987 168.65H78.4911V128.65ZM79.0911 128.65V168.65H106.607L116.446 142.954L79.0911 128.65ZM112.691 40.9V0.899993H85.1752L75.3359 26.5965L112.691 40.9ZM132.491 40.9H172.491V0.899993H132.491V40.9ZM132.491 148V188H172.491V148H132.491ZM119.141 148H79.1411V188H119.141V148ZM119.291 71.8L159.274 72.976L159.274 72.9592L159.275 72.9424L119.291 71.8ZM119.741 62.05L159.652 64.7107L159.655 64.668L159.658 64.6253L119.741 62.05ZM120.191 54.25L160.146 56.1526L162.141 14.25H120.191V54.25ZM119.591 54.25V14.25H92.021L82.2097 40.0152L119.591 54.25ZM83.8911 148V188H111.461L121.272 162.235L83.8911 148ZM110.239 133.942L74.9893 40.0419L0.0928031 68.158L35.3428 162.058L110.239 133.942ZM37.5411 14.1H36.9411V94.1H37.5411V14.1ZM-2.86044 58.0801C-2.78405 58.844 -2.67288 60.4131 -2.58815 63.0396L77.3703 60.4603C77.255 56.8869 77.0662 53.356 76.7425 50.1198L-2.86044 58.0801ZM-2.52596 64.3253C-2.36344 66.8443 -2.23333 69.7383 -2.14435 73.0307L77.8265 70.8693C77.7154 66.7617 77.5455 62.8557 77.3081 59.1747L-2.52596 64.3253ZM-2.14353 73.0607C-2.05435 76.2709 -2.00895 79.6001 -2.00895 83.05H77.9911C77.9911 78.8999 77.9365 74.8291 77.8256 70.8393L-2.14353 73.0607ZM-2.00895 83.05V148H77.9911V83.05H-2.00895ZM37.9911 108H25.5411V188H37.9911V108ZM65.5411 148V40.9H-14.4589V148H65.5411ZM25.5411 80.9H45.4911V0.899993H25.5411V80.9ZM8.05105 54.98L41.0511 142.73L115.931 114.57L82.9311 26.82L8.05105 54.98ZM78.4911 168.65H79.0911V88.65H78.4911V168.65ZM116.446 142.954L150.046 55.2035L75.3359 26.5965L41.7359 114.346L116.446 142.954ZM112.691 80.9H132.491V0.899993H112.691V80.9ZM92.4911 40.9V148H172.491V40.9H92.4911ZM132.491 108H119.141V188H132.491V108ZM159.141 148V82.15H79.1411V148H159.141ZM159.141 82.15C159.141 79.0308 159.186 75.973 159.274 72.976L79.3084 70.624C79.1965 74.427 79.1411 78.2692 79.1411 82.15H159.141ZM159.275 72.9424C159.363 69.8689 159.491 67.1311 159.652 64.7107L79.8296 59.3893C79.591 62.9689 79.4196 66.7311 79.3074 70.6576L159.275 72.9424ZM159.658 64.6253C159.866 61.3959 160.031 58.5551 160.146 56.1526L80.2363 52.3474C80.1507 54.1449 80.0157 56.5041 79.824 59.4747L159.658 64.6253ZM120.191 14.25H119.591V94.25H120.191V14.25ZM82.2097 40.0152L46.5097 133.765L121.272 162.235L156.972 68.4848L82.2097 40.0152ZM83.8911 108H72.7911V188H83.8911V108Z" fill="black" mask="url(#path-3-inside-2_60_581)"/>
</g>
<defs>
<filter id="filter0_i_60_581" x="111.676" y="40.9" width="85.95" height="111.1" filterUnits="userSpaceOnUse" color-interpolation-filters="sRGB">
<feFlood flood-opacity="0" result="BackgroundImageFix"/>
<feBlend mode="normal" in="SourceGraphic" in2="BackgroundImageFix" result="shape"/>
<feColorMatrix in="SourceAlpha" type="matrix" values="0 0 0 0 0 0 0 0 0 0 0 0 0 0 0 0 0 0 127 0" result="hardAlpha"/>
<feOffset dy="4"/>
<feGaussianBlur stdDeviation="2"/>
<feComposite in2="hardAlpha" operator="arithmetic" k2="-1" k3="1"/>
<feColorMatrix type="matrix" values="0 0 0 0 0 0 0 0 0 0 0 0 0 0 0 0 0 0 0.25 0"/>
<feBlend mode="normal" in2="shape" result="effect1_innerShadow_60_581"/>
</filter>
</defs>
</svg>
